<svg xmlns="http://www.w3.org/2000/svg" width="411.504" height="788.454" viewBox="0 0 411.504 788.454">
  <path id="Subtraction_1" data-name="Subtraction 1" d="M394,931h-.023a395.276,395.276,0,0,1-170.024-38.4,391.151,391.151,0,0,1-109.64-77.9A399.494,399.494,0,0,1,60.3,746.692,393.121,393.121,0,0,1,120.866,253.41a400,400,0,0,1,30.469-26.385,392.338,392.338,0,0,1,242.131-83.479c5.654,0,11.385.123,17.034.367V244.694c-5.622-.324-11.333-.489-16.973-.489a293.4,293.4,0,0,0-230.9,473.839c55.971,71.64,140.279,112.727,231.308,112.727,5.5,0,11.074-.157,16.565-.467V930.655C405.028,930.884,399.477,931,394,931Z" transform="translate(0.504 -143.046)" fill="#f8fafe" stroke="rgba(0,0,0,0)" stroke-miterlimit="10" stroke-width="1"/>
</svg>
