<svg id="Group_13" data-name="Group 13" xmlns="http://www.w3.org/2000/svg" width="68" height="90.667" viewBox="0 0 68 90.667">
  <path id="Path_4" data-name="Path 4" d="M1696.816,249.979a3.6,3.6,0,0,0-3.009-.72l-6.7,1.337V235.59a6.5,6.5,0,0,0-6.492-6.5h-43.927a6.5,6.5,0,0,0-6.492,6.5v27.353a1.786,1.786,0,1,0,3.572,0V235.59a2.927,2.927,0,0,1,2.921-2.926h9.2v2.174a5,5,0,0,0,5,5h15.535a5.006,5.006,0,0,0,5-5v-2.174h9.2a2.927,2.927,0,0,1,2.921,2.926v15.719L1670.056,254a4.742,4.742,0,0,0-3.661,4.572v25.653a9.46,9.46,0,0,0-5.482-1.348c-4.885.26-8.859,3.973-8.859,8.276a7.077,7.077,0,0,0,2.264,5.166,9.052,9.052,0,0,0,6.242,2.363c.18,0,.361,0,.542-.015,4.888-.26,8.865-3.974,8.865-8.276V268.05H1670a3.767,3.767,0,0,0,.749-.076l12.788-2.55v7.3a7.962,7.962,0,0,0-3.288,6.238,7.069,7.069,0,0,0,2.263,5.16,7.952,7.952,0,0,0,1.025.821v23.932h-49.768v-30a1.786,1.786,0,1,0-3.572,0v34.388a6.5,6.5,0,0,0,6.492,6.5h43.927a6.5,6.5,0,0,0,6.492-6.5V286.344a9.952,9.952,0,0,0,1.647.139c.18,0,.361,0,.541-.015,4.888-.261,8.865-3.973,8.865-8.277,0-.009,0-.018,0-.027s0-.009,0-.014v-25.2a3.8,3.8,0,0,0-1.347-2.968Zm-28.967-15.142a1.43,1.43,0,0,1-1.427,1.43h-15.535a1.431,1.431,0,0,1-1.427-1.43v-2.174h18.39Zm12.769,81.351h-43.927a2.927,2.927,0,0,1-2.921-2.926v-.818h49.769v.818a2.926,2.926,0,0,1-2.921,2.926ZM1660.913,295.1a5.563,5.563,0,0,1-4.137-1.373,3.51,3.51,0,0,1-1.15-2.573c0-2.4,2.508-4.552,5.477-4.71.119-.006.239-.01.358-.01a5.478,5.478,0,0,1,3.785,1.385,3.511,3.511,0,0,1,1.15,2.571c0,2.395-2.511,4.552-5.483,4.709Zm9.137-30.626a.3.3,0,0,1-.049.007.459.459,0,0,1-.033-.193v-5.715a1.188,1.188,0,0,1,.779-1.068h0l23.757-4.742a.3.3,0,0,1,.05-.006.461.461,0,0,1,.033.192v5.715a1.2,1.2,0,0,1-.784,1.074l-8.838,1.762-.009,0Zm17.06.24,7.4-1.475c.029-.006.056-.015.083-.021v8.809a9.463,9.463,0,0,0-5.484-1.343,10.233,10.233,0,0,0-2,.309Zm2,18.189a5.572,5.572,0,0,1-4.139-1.374,3.509,3.509,0,0,1-1.149-2.568,4.52,4.52,0,0,1,2.295-3.716,1.649,1.649,0,0,0,.244-.145,6.68,6.68,0,0,1,2.939-.849h0c.123-.007.244-.01.365-.01a5.467,5.467,0,0,1,3.774,1.379,3.51,3.51,0,0,1,1.151,2.573c0,2.436-2.459,4.549-5.482,4.71Zm0,0" transform="translate(-1630.164 -229.092)"/>
  <path id="Path_5" data-name="Path 5" d="M1631.785,458.129a1.786,1.786,0,0,0,1.786-1.785v-.035a1.786,1.786,0,1,0-3.572,0v.035a1.786,1.786,0,0,0,1.786,1.786Zm0,0" transform="translate(-1630 -414.524)"/>
</svg>
