<svg id="Group_17" data-name="Group 17" xmlns="http://www.w3.org/2000/svg" xmlns:xlink="http://www.w3.org/1999/xlink" width="123.236" height="111.683" viewBox="0 0 123.236 111.683">
  <defs>
    <clipPath id="clip-path">
      <rect id="Rectangle_7" data-name="Rectangle 7" width="123.236" height="111.683"/>
    </clipPath>
  </defs>
  <path id="Path_17" data-name="Path 17" d="M1815.581,881.476v.321a2.427,2.427,0,0,0,2.427,2.427h0a2.427,2.427,0,0,0,2.427-2.427v-.321a8.59,8.59,0,0,0,6.156-8.225v-10.74a2.483,2.483,0,0,0-2.266-2.506,2.428,2.428,0,0,0-2.589,2.422v10.823a3.729,3.729,0,0,1-3.91,3.718,3.791,3.791,0,0,1-3.538-3.822V841.277a23.4,23.4,0,0,0,7.448-3.863v4.563a2.483,2.483,0,0,0,2.266,2.505,2.427,2.427,0,0,0,2.589-2.422v-9.713a23.451,23.451,0,0,0-19.169-36.967h-7.213a5.561,5.561,0,0,0-5.561,5.561v35.795a5.57,5.57,0,0,0,5.561,5.568h7.213c.677,0,1.347-.031,2.01-.087v31.036A8.591,8.591,0,0,0,1815.581,881.476Zm-10.587-44.028h-4.786a.718.718,0,0,1-.705-.714V800.94a.715.715,0,0,1,.705-.706h4.786Zm4.855-37.051a18.6,18.6,0,0,1,0,36.888Z" transform="translate(-1770.652 -795.379)"/>
  <path id="Path_18" data-name="Path 18" d="M1857.805,969.481" transform="translate(-1818.607 -927.575)"/>
  <g id="Group_7" data-name="Group 7" transform="translate(0 0)">
    <g id="Group_6" data-name="Group 6" clip-path="url(#clip-path)">
      <path id="Path_19" data-name="Path 19" d="M1710.412,882.77h-13.031a2.427,2.427,0,1,0,0,4.854h13.031a2.427,2.427,0,1,0,0-4.854Zm0,0" transform="translate(-1694.953 -861.735)"/>
      <path id="Path_20" data-name="Path 20" d="M1711.626,800.551l9.212,8.294a2.427,2.427,0,1,0,3.249-3.608l-9.213-8.295a2.427,2.427,0,1,0-3.247,3.608Zm0,0" transform="translate(-1707.003 -796.093)"/>
    </g>
  </g>
  <path id="Path_21" data-name="Path 21" d="M1720.838,935.38l-9.212,8.295a2.427,2.427,0,0,0,3.248,3.608l9.212-8.295a2.427,2.427,0,1,0-3.249-3.608Zm0,0" transform="translate(-1707.003 -901.209)"/>
  <path id="Path_22" data-name="Path 22" d="M1909.615,1022.234a2.428,2.428,0,0,0-2.428,2.427v.048a2.428,2.428,0,1,0,4.855,0v-.048a2.427,2.427,0,0,0-2.427-2.427Zm0,0" transform="translate(-1856.103 -967.631)"/>
  <path id="Path_23" data-name="Path 23" d="M1961.025,842.061a2.427,2.427,0,0,0,2.588,2.421,2.481,2.481,0,0,0,2.266-2.5v-4.565a23.407,23.407,0,0,0,7.449,3.863v31.869a3.792,3.792,0,0,1-3.536,3.823,3.729,3.729,0,0,1-3.913-3.718V862.512a2.483,2.483,0,0,0-2.265-2.506,2.427,2.427,0,0,0-2.589,2.422v10.823a8.592,8.592,0,0,0,6.155,8.226v.32a2.427,2.427,0,0,0,2.427,2.427h0a2.427,2.427,0,0,0,2.427-2.427v-.321a8.59,8.59,0,0,0,6.148-8.225V842.215c.663.056,1.333.087,2.011.087h7.214a5.57,5.57,0,0,0,5.559-5.568V800.94a5.565,5.565,0,0,0-5.559-5.561h-7.214a23.451,23.451,0,0,0-19.169,36.967Zm21.6-41.827h4.786a.716.716,0,0,1,.706.706v35.795a.719.719,0,0,1-.706.714h-4.786Zm-4.854.164v36.888a18.6,18.6,0,0,1,0-36.888Z" transform="translate(-1893.728 -795.379)"/>
  <path id="Path_24" data-name="Path 24" d="M2087.09,967.2" transform="translate(-1992.705 -925.84)"/>
  <g id="Group_9" data-name="Group 9" transform="translate(0 0)">
    <g id="Group_8" data-name="Group 8" clip-path="url(#clip-path)">
      <path id="Path_25" data-name="Path 25" d="M2148.1,882.77h-13.032a2.427,2.427,0,1,0,0,4.854H2148.1a2.427,2.427,0,1,0,0-4.854Zm0,0" transform="translate(-2027.292 -861.735)"/>
      <path id="Path_26" data-name="Path 26" d="M2135.068,809.469a2.418,2.418,0,0,0,1.624-.623l9.212-8.294a2.427,2.427,0,0,0-3.247-3.608l-9.213,8.295a2.427,2.427,0,0,0,1.625,4.231Zm0,0" transform="translate(-2027.292 -796.093)"/>
    </g>
  </g>
  <path id="Path_27" data-name="Path 27" d="M2145.9,943.675l-9.212-8.295a2.427,2.427,0,1,0-3.249,3.608l9.213,8.295a2.427,2.427,0,0,0,3.247-3.608Zm0,0" transform="translate(-2027.292 -901.209)"/>
  <path id="Path_28" data-name="Path 28" d="M1976.975,1027.136a2.427,2.427,0,0,0,2.427-2.427v-.048a2.427,2.427,0,1,0-4.854,0v.048a2.427,2.427,0,0,0,2.428,2.427Zm0,0" transform="translate(-1907.25 -967.631)"/>
</svg>
