<svg xmlns="http://www.w3.org/2000/svg" width="519.333" height="514.375" viewBox="0 0 519.333 514.375">
  <g id="Group_62" data-name="Group 62" transform="translate(-624.077 -741.722)">
    <g id="Group_58" data-name="Group 58" transform="translate(624.077 741.722)">
      <path id="Path_50" data-name="Path 50" d="M1122.486,1240c-275.744-.241-500.246-223.175-503.24-498.282H603.153c2.993,283.983,234.706,514.135,519.333,514.375Z" transform="translate(-603.153 -741.722)" fill="#fff"/>
    </g>
    <g id="Group_59" data-name="Group 59" transform="translate(713.983 741.722)">
      <path id="Path_51" data-name="Path 51" d="M1043.754,1150.107c-226.176-.25-410.349-182.845-413.334-408.385H614.326C617.312,976.13,808.7,1165.951,1043.754,1166.2Z" transform="translate(-614.326 -741.722)" fill="#fff"/>
    </g>
    <g id="Group_60" data-name="Group 60" transform="translate(814.961 741.722)">
      <path id="Path_52" data-name="Path 52" d="M955.325,1049.13c-170.493-.25-309.387-137.551-312.356-307.407H626.875c2.97,178.725,149.081,323.251,328.45,323.5Z" transform="translate(-626.875 -741.722)" fill="#fff"/>
    </g>
    <g id="Group_61" data-name="Group 61" transform="translate(908.182 741.722)">
      <path id="Path_53" data-name="Path 53" d="M873.688,955.9c-119.09-.242-216.174-95.731-219.135-214.179H638.46c2.961,127.323,107.262,230.031,235.228,230.272Z" transform="translate(-638.46 -741.722)" fill="#fff"/>
    </g>
  </g>
</svg>
