<svg id="Group_15" data-name="Group 15" xmlns="http://www.w3.org/2000/svg" width="103.641" height="92.71" viewBox="0 0 103.641 92.71">
  <path id="Path_9" data-name="Path 9" d="M1430.375,970.742a23.1,23.1,0,0,0,3.977-12.336,2.039,2.039,0,0,0-4.078,0c0,6.654-5.142,14.533-11.228,17.205a2.038,2.038,0,1,0,1.639,3.733,23.06,23.06,0,0,0,9.69-8.6Zm0,0" transform="translate(-1339.928 -896.578)"/>
  <path id="Path_10" data-name="Path 10" d="M1452.967,952.082a2.039,2.039,0,0,0-2.039,2.038c0,10.57-7.87,22.622-17.544,26.869a2.038,2.038,0,1,0,1.638,3.733,36.057,36.057,0,0,0,19.982-30.6,2.039,2.039,0,0,0-2.038-2.039Zm0,0" transform="translate(-1351.364 -893.16)"/>
  <path id="Path_11" data-name="Path 11" d="M1042.156,1009.706l-4.361-2.386,3.479-6.456a2.038,2.038,0,0,0-3.589-1.934l-4.44,8.239a2.039,2.039,0,0,0,.816,2.755l4.267,2.335-4.268,7.024a2.039,2.039,0,1,0,3.485,2.117l5.375-8.847a2.04,2.04,0,0,0-.764-2.847Zm0,0" transform="translate(-1033.001 -929.67)"/>
  <path id="Path_12" data-name="Path 12" d="M1142,713.222a23.1,23.1,0,0,0-3.978,12.334,2.039,2.039,0,0,0,4.077,0c0-6.654,5.142-14.53,11.228-17.2a2.039,2.039,0,0,0-1.639-3.734,23.057,23.057,0,0,0-9.688,8.6Zm0,0" transform="translate(-1116.764 -695.655)"/>
  <path id="Path_13" data-name="Path 13" d="M1096.589,691.774c0-10.571,7.868-22.623,17.539-26.869a2.038,2.038,0,0,0-1.639-3.733,36.051,36.051,0,0,0-19.977,30.6,2.038,2.038,0,1,0,4.077,0Zm0,0" transform="translate(-1080.465 -661.001)"/>
  <path id="Path_14" data-name="Path 14" d="M1171,779.347v0l.023-28.006h0v-8.131a4.851,4.851,0,0,0-1.71-3.76,4.947,4.947,0,0,0-4.086-1.006l-36.245,6.747a6.318,6.318,0,0,0-5.052,6.022v38.064a12.941,12.941,0,0,0-9.288-1.37h0c-7.056,1.374-12.583,7.007-12.583,12.822a8.25,8.25,0,0,0,3.052,6.47,11.39,11.39,0,0,0,7.314,2.4,15.736,15.736,0,0,0,2.995-.295c7.059-1.374,12.588-7.007,12.588-12.823V764.139a5.163,5.163,0,0,0,.746.058,5.356,5.356,0,0,0,.979-.091l8.725-1.625a2.039,2.039,0,1,0-.746-4.008l-8.722,1.624a.894.894,0,0,1-.743-.132.791.791,0,0,1-.238-.619v-8.135a2.254,2.254,0,0,1,1.724-2.015l36.24-6.746a.886.886,0,0,1,.734.131.8.8,0,0,1,.239.625v8.129a2.243,2.243,0,0,1-1.718,2.015l-8.788,1.637a2.039,2.039,0,1,0,.746,4.008l8.787-1.636a5.812,5.812,0,0,0,.969-.271l-.013,14.958a13.116,13.116,0,0,0-9.233-1.629h0c-7.093,1.159-12.648,6.645-12.648,12.489a8.467,8.467,0,0,0,3.048,6.54,11.807,11.807,0,0,0,7.711,2.595,15.82,15.82,0,0,0,2.545-.21c7.093-1.153,12.648-6.636,12.651-12.485ZM1114.643,805.3c-2.75.534-5.344.067-6.938-1.247a4.188,4.188,0,0,1-1.569-3.325c0-3.8,4.251-7.84,9.284-8.821,2.753-.533,5.349-.066,6.943,1.249a4.183,4.183,0,0,1,1.568,3.323c0,3.8-4.254,7.841-9.288,8.82Zm43.052-17.492a8.708,8.708,0,0,1-6.961-1.467,4.4,4.4,0,0,1-1.611-3.434c0-3.771,4.226-7.647,9.229-8.465h0a8.723,8.723,0,0,1,6.964,1.473,4.388,4.388,0,0,1,1.608,3.427c0,3.776-4.226,7.653-9.229,8.466Zm0,0" transform="translate(-1088.08 -722.694)"/>
  <path id="Path_15" data-name="Path 15" d="M1318.413,832.99a2.145,2.145,0,0,0,.291-.021l.04-.006a2.039,2.039,0,0,0-.576-4.036l-.041.005a2.039,2.039,0,0,0,.286,4.057Zm0,0" transform="translate(-1259.015 -794.918)"/>
  <path id="Path_16" data-name="Path 16" d="M1465.728,678.461l4.265,2.33-4.268,7.029a2.038,2.038,0,1,0,3.485,2.116l5.375-8.853a2.039,2.039,0,0,0-.766-2.847l-4.359-2.382,3.479-6.46a2.038,2.038,0,1,0-3.589-1.932l-4.441,8.244a2.039,2.039,0,0,0,.818,2.756Zm0,0" transform="translate(-1377.286 -665.298)"/>
</svg>
