<svg id="Group_19" data-name="Group 19" xmlns="http://www.w3.org/2000/svg" width="99.42" height="102.216" viewBox="0 0 99.42 102.216">
  <path id="Path_6" data-name="Path 6" d="M2275.021,344.007a2,2,0,0,0,1.424-.59l15.07-15.081a2.013,2.013,0,1,0-2.848-2.846L2273.6,340.57a2.014,2.014,0,0,0,1.424,3.437Zm0,0" transform="translate(-2249.049 -294.795)"/>
  <path id="Path_7" data-name="Path 7" d="M2251.831,228.115a2.013,2.013,0,0,0-2.847,0l-42,42.033a7.3,7.3,0,0,1-5.208,2.149h0a7.321,7.321,0,0,1-5.216-2.15,7.4,7.4,0,0,1,0-10.442l12.419-12.423,18.778-18.792a11.406,11.406,0,0,0-16.125-16.135L2169.612,254.4a7.4,7.4,0,0,1-10.43,0,7.4,7.4,0,0,1,0-10.442l6.99-6.99.331.332a4.7,4.7,0,0,0,6.646,0l2.932-2.936a8.9,8.9,0,0,0,9-2.179l20.823-20.84a4.355,4.355,0,0,0,0-6.15l-.607-.608,6.462-6.467h0l7.885-7.891,4.494-4.5a6.82,6.82,0,0,0,0-9.627,6.807,6.807,0,0,0-9.622,0l-4.5,4.5-7.884,7.885h0l-6.461,6.467-.6-.605a4.351,4.351,0,0,0-6.144,0l-3.827,3.83a2.013,2.013,0,1,0,2.848,2.846l3.827-3.829a.326.326,0,0,1,.448,0l10.836,10.844a.327.327,0,0,1,0,.457l-20.824,20.841a4.878,4.878,0,0,1-5.695.873l-.013-.006a4.841,4.841,0,0,1-1.177-.866l-4.4-4.409a4.845,4.845,0,0,1-.851-1.146l-.033-.066a4.911,4.911,0,0,1,.886-5.682l5.41-5.414a2.014,2.014,0,0,0-2.849-2.846l-5.409,5.414a8.843,8.843,0,0,0-2.6,6.3,8.968,8.968,0,0,0,.418,2.714l-2.932,2.934a4.7,4.7,0,0,0,0,6.646l.339.339-6.991,6.992a11.406,11.406,0,0,0,16.126,16.134l42.009-42.043a7.4,7.4,0,0,1,10.43,0,7.4,7.4,0,0,1,0,10.442l-18.777,18.793L2193.7,256.86a11.434,11.434,0,0,0,0,16.133,11.318,11.318,0,0,0,8.064,3.332h.005a11.305,11.305,0,0,0,8.056-3.332l42-42.031a2.013,2.013,0,0,0,0-2.847Zm-41.493-34.269-.25-.25-3.682-3.685,5.04-5.039,3.93,3.931Zm7.034-14.9a2.781,2.781,0,0,1,3.921,0,2.788,2.788,0,0,1,0,3.936l-3.07,3.073-3.93-3.93ZM2203.56,192.76l1.768,1.769,2.164,2.165-5.039,5.043-1.946-1.947-1.985-1.987Zm-37.725,37.223,2.237-2.238.03.031,4.4,4.409.032.031-2.233,2.235a.68.68,0,0,1-.951,0l-3.519-3.523a.676.676,0,0,1,0-.946Zm0,0" transform="translate(-2153 -174.109)"/>
  <path id="Path_8" data-name="Path 8" d="M2285.013,323.51a2.007,2.007,0,0,0,1.424-.59l.022-.023a2.013,2.013,0,1,0-2.847-2.847l-.023.023a2.013,2.013,0,0,0,1.424,3.437Zm0,0" transform="translate(-2257.047 -290.443)"/>
</svg>
