<svg xmlns="http://www.w3.org/2000/svg" width="108" height="92.18" viewBox="0 0 108 92.18">
  <g id="Group_21" data-name="Group 21" transform="translate(-650.377 -4749.318)">
    <path id="Path_29" data-name="Path 29" d="M2574.3,888.1l15.9-19.137a2.123,2.123,0,0,0-1.123-3.419l-24.644-6.1a2.125,2.125,0,0,0-1.022,4.125l21.357,5.289-14.28,17.193a2.13,2.13,0,0,0-.485,1.518l1.7,22.461-20.229-8.569a2.122,2.122,0,0,0-1.657,0l-20.222,8.569,1.7-22.461a2.129,2.129,0,0,0-.485-1.518l-14.279-17.192,18.773-4.644,2.587-.645a2.129,2.129,0,0,0,1.308-.97l9.553-15.949,1.9-3.17,1.153,1.928a2.124,2.124,0,0,0,3.646-2.182l-2.977-4.973a2.124,2.124,0,0,0-3.646,0l-3.718,6.215-9.1,15.193-1.729.431-22.057,5.458a2.124,2.124,0,0,0-1.124,3.419l15.9,19.137-1.9,25.08a2.125,2.125,0,0,0,2.947,2.116l22.6-9.578,22.61,9.578a2.125,2.125,0,0,0,2.947-2.116Zm0,0" transform="translate(-1845.93 3926.031)"/>
    <path id="Path_30" data-name="Path 30" d="M2495.276,789.906l-2.1,8.365a2.125,2.125,0,0,0,2.577,2.578l8.36-2.1,7.241,4.367a2.125,2.125,0,0,0,3.211-1.624l.794-8.576,6.611-5.675a2.124,2.124,0,0,0-.587-3.581l-7.85-3.178-3.171-7.844a2.124,2.124,0,0,0-3.58-.589l-5.682,6.607-8.57.793a2.124,2.124,0,0,0-1.624,3.211Zm7.074-7.1a2.13,2.13,0,0,0,1.415-.731l3.968-4.613,2.2,5.447a2.126,2.126,0,0,0,1.173,1.173l5.451,2.206-4.616,3.963a2.129,2.129,0,0,0-.732,1.416l-.56,6.06-5.1-3.074a2.118,2.118,0,0,0-1.615-.242l-5.776,1.45,1.45-5.783a2.126,2.126,0,0,0-.242-1.614l-3.074-5.1Zm0,0" transform="translate(-1830.161 3978.005)"/>
    <path id="Path_31" data-name="Path 31" d="M2651.317,963.89a2.124,2.124,0,0,0-1.507-1.4l-9.339-2.31-5.033-8.4a2.124,2.124,0,0,0-3.646,0l-5.034,8.405-9.333,2.309a2.125,2.125,0,0,0-1.125,3.42l6.254,7.529-.748,9.867a2.123,2.123,0,0,0,2.947,2.116l8.86-3.755,8.867,3.755a2.124,2.124,0,0,0,2.947-2.116l-.748-9.867,6.253-7.529a2.118,2.118,0,0,0,.384-2.02Zm-10.454,7.5a2.123,2.123,0,0,0-.484,1.518l.549,7.246-6.485-2.746a2.123,2.123,0,0,0-1.658,0l-6.478,2.745.548-7.245a2.121,2.121,0,0,0-.484-1.518l-4.638-5.584,6.9-1.709a2.121,2.121,0,0,0,1.312-.97l3.665-6.121,3.665,6.121a2.122,2.122,0,0,0,1.312.97l6.91,1.709Zm0,0" transform="translate(-1928.906 3836.498)"/>
    <path id="Path_32" data-name="Path 32" d="M2758.332,787.245l6.6,5.675.793,8.577a2.126,2.126,0,0,0,3.212,1.625l7.246-4.368,8.361,2.1a2.124,2.124,0,0,0,2.578-2.578l-2.1-8.365,4.368-7.242a2.124,2.124,0,0,0-1.623-3.211l-8.572-.793-5.68-6.606a2.125,2.125,0,0,0-3.581.588l-3.177,7.846-7.845,3.177a2.124,2.124,0,0,0-.586,3.58Zm10.861-3.156a2.123,2.123,0,0,0,1.171-1.172l2.207-5.45,3.969,4.615a2.127,2.127,0,0,0,1.414.731l6.054.56-3.074,5.1a2.127,2.127,0,0,0-.242,1.614l1.451,5.783-5.777-1.451a2.126,2.126,0,0,0-1.614.242l-5.1,3.075-.561-6.061a2.12,2.12,0,0,0-.731-1.416l-4.612-3.963Zm0,0" transform="translate(-2040.721 3978.002)"/>
    <path id="Path_33" data-name="Path 33" d="M2465.88,1078.237l-5.389-2.179-2.184-5.395a2.125,2.125,0,0,0-3.581-.587l-3.911,4.555-5.911.548a2.124,2.124,0,0,0-1.623,3.212l3,4.981-1.446,5.755a2.124,2.124,0,0,0,2.578,2.578l5.759-1.447,4.981,3a2.125,2.125,0,0,0,3.212-1.625l.543-5.906,4.554-3.917a2.124,2.124,0,0,0-.588-3.58Zm-7.388,4.836a2.126,2.126,0,0,0-.73,1.417l-.311,3.386-2.837-1.711a2.139,2.139,0,0,0-1.615-.242l-3.173.8.8-3.169a2.122,2.122,0,0,0-.242-1.615l-1.711-2.838,3.394-.315a2.127,2.127,0,0,0,1.416-.731l2.2-2.561,1.214,3a2.124,2.124,0,0,0,1.172,1.172l2.991,1.21Zm0,0" transform="translate(-1792.6 3742.968)"/>
    <path id="Path_34" data-name="Path 34" d="M2727.311,903.565a2.124,2.124,0,0,0,3.637-2.2l-.018-.03a2.124,2.124,0,0,0-3.637,2.2Zm0,0" transform="translate(-2016.584 3876.269)"/>
    <path id="Path_35" data-name="Path 35" d="M2863.308,1076.338a2.127,2.127,0,0,0-1.7-1.157l-5.911-.548-3.912-4.554a2.124,2.124,0,0,0-3.581.586l-2.184,5.395-5.394,2.179a2.123,2.123,0,0,0-.589,3.58l4.556,3.918.548,5.906a2.125,2.125,0,0,0,3.212,1.622l4.98-3,5.754,1.446a2.124,2.124,0,0,0,2.578-2.576l-1.441-5.755,3-4.982a2.124,2.124,0,0,0,.077-2.055Zm-7.419,7.212.794,3.171-3.17-.8a2.128,2.128,0,0,0-1.615.242l-2.84,1.712-.314-3.389a2.122,2.122,0,0,0-.73-1.415l-2.563-2.2,3-1.21a2.119,2.119,0,0,0,1.172-1.172l1.214-3,2.2,2.561a2.126,2.126,0,0,0,1.416.73l3.395.316-1.712,2.838a2.125,2.125,0,0,0-.242,1.613Zm0,0" transform="translate(-2105.159 3742.968)"/>
  </g>
</svg>
