<svg xmlns="http://www.w3.org/2000/svg" width="402.823" height="258.127" viewBox="0 0 402.823 258.127">
  <g id="Group-2" transform="translate(-2401.75 -1241)">
    <circle id="Oval" cx="8.016" cy="8.016" r="8.016" transform="translate(2401.75 1241.401)" fill="#f8fafe"/>
    <circle id="Oval-Copy-3" cx="8.016" cy="8.016" r="8.016" transform="translate(2466.282 1241.401)" fill="#f8fafe"/>
    <circle id="Oval-Copy-4" cx="8.016" cy="8.016" r="8.016" transform="translate(2530.413 1241)" fill="#f8fafe"/>
    <circle id="Oval-Copy-13" cx="8.016" cy="8.016" r="8.016" transform="translate(2594.945 1241.802)" fill="#f8fafe"/>
    <circle id="Oval-Copy-12" cx="8.016" cy="8.016" r="8.016" transform="translate(2659.075 1241.802)" fill="#f8fafe"/>
    <circle id="Oval-Copy-10" cx="8.016" cy="8.016" r="8.016" transform="translate(2723.607 1241.401)" fill="#f8fafe"/>
    <circle id="Oval-Copy-16" cx="8.016" cy="8.016" r="8.016" transform="translate(2787.738 1241)" fill="#f8fafe"/>
    <circle id="Oval-Copy-21" cx="8.016" cy="8.016" r="8.016" transform="translate(2401.75 1280.28)" fill="#f8fafe"/>
    <circle id="Oval-Copy-20" cx="8.016" cy="8.016" r="8.016" transform="translate(2466.282 1280.28)" fill="#f8fafe"/>
    <circle id="Oval-Copy-19" cx="8.016" cy="8.016" r="8.016" transform="translate(2530.413 1279.879)" fill="#f8fafe"/>
    <circle id="Oval-Copy-18" cx="8.016" cy="8.016" r="8.016" transform="translate(2594.945 1280.681)" fill="#f8fafe"/>
    <circle id="Oval-Copy-15" cx="8.016" cy="8.016" r="8.016" transform="translate(2659.075 1280.681)" fill="#f8fafe"/>
    <circle id="Oval-Copy-14" cx="8.016" cy="8.016" r="8.016" transform="translate(2723.607 1280.28)" fill="#f8fafe"/>
    <circle id="Oval-Copy-17" cx="8.016" cy="8.016" r="8.016" transform="translate(2787.738 1279.879)" fill="#f8fafe"/>
    <circle id="Oval-Copy-28" cx="8.016" cy="8.016" r="8.016" transform="translate(2402.151 1319.961)" fill="#f8fafe"/>
    <circle id="Oval-Copy-27" cx="8.016" cy="8.016" r="8.016" transform="translate(2466.683 1319.961)" fill="#f8fafe"/>
    <circle id="Oval-Copy-26" cx="8.016" cy="8.016" r="8.016" transform="translate(2530.813 1319.56)" fill="#f8fafe"/>
    <circle id="Oval-Copy-25" cx="8.016" cy="8.016" r="8.016" transform="translate(2595.346 1320.362)" fill="#f8fafe"/>
    <circle id="Oval-Copy-24" cx="8.016" cy="8.016" r="8.016" transform="translate(2659.476 1320.362)" fill="#f8fafe"/>
    <circle id="Oval-Copy-23" cx="8.016" cy="8.016" r="8.016" transform="translate(2724.008 1319.961)" fill="#f8fafe"/>
    <circle id="Oval-Copy-22" cx="8.016" cy="8.016" r="8.016" transform="translate(2788.139 1319.56)" fill="#f8fafe"/>
    <circle id="Oval-Copy-35" cx="8.016" cy="8.016" r="8.016" transform="translate(2402.552 1360.444)" fill="#f8fafe"/>
    <circle id="Oval-Copy-34" cx="8.016" cy="8.016" r="8.016" transform="translate(2467.083 1360.444)" fill="#f8fafe"/>
    <circle id="Oval-Copy-33" cx="8.016" cy="8.016" r="8.016" transform="translate(2531.214 1360.043)" fill="#f8fafe"/>
    <circle id="Oval-Copy-32" cx="8.016" cy="8.016" r="8.016" transform="translate(2595.746 1360.845)" fill="#f8fafe"/>
    <circle id="Oval-Copy-31" cx="8.016" cy="8.016" r="8.016" transform="translate(2659.877 1360.845)" fill="#f8fafe"/>
    <circle id="Oval-Copy-30" cx="8.016" cy="8.016" r="8.016" transform="translate(2724.409 1360.444)" fill="#f8fafe"/>
    <circle id="Oval-Copy-29" cx="8.016" cy="8.016" r="8.016" transform="translate(2788.54 1360.043)" fill="#f8fafe"/>
    <circle id="Oval-Copy-42" cx="8.016" cy="8.016" r="8.016" transform="translate(2401.75 1401.728)" fill="#f8fafe"/>
    <circle id="Oval-Copy-41" cx="8.016" cy="8.016" r="8.016" transform="translate(2466.282 1401.728)" fill="#f8fafe"/>
    <circle id="Oval-Copy-40" cx="8.016" cy="8.016" r="8.016" transform="translate(2530.413 1401.328)" fill="#f8fafe"/>
    <circle id="Oval-Copy-39" cx="8.016" cy="8.016" r="8.016" transform="translate(2594.945 1402.129)" fill="#f8fafe"/>
    <circle id="Oval-Copy-38" cx="8.016" cy="8.016" r="8.016" transform="translate(2659.075 1402.129)" fill="#f8fafe"/>
    <circle id="Oval-Copy-37" cx="8.016" cy="8.016" r="8.016" transform="translate(2723.607 1401.728)" fill="#f8fafe"/>
    <circle id="Oval-Copy-36" cx="8.016" cy="8.016" r="8.016" transform="translate(2787.738 1401.328)" fill="#f8fafe"/>
    <circle id="Oval-Copy-49" cx="8.016" cy="8.016" r="8.016" transform="translate(2401.75 1442.211)" fill="#f8fafe"/>
    <circle id="Oval-Copy-48" cx="8.016" cy="8.016" r="8.016" transform="translate(2466.282 1442.211)" fill="#f8fafe"/>
    <circle id="Oval-Copy-47" cx="8.016" cy="8.016" r="8.016" transform="translate(2530.413 1441.81)" fill="#f8fafe"/>
    <circle id="Oval-Copy-46" cx="8.016" cy="8.016" r="8.016" transform="translate(2594.945 1442.612)" fill="#f8fafe"/>
    <circle id="Oval-Copy-45" cx="8.016" cy="8.016" r="8.016" transform="translate(2659.075 1442.612)" fill="#f8fafe"/>
    <circle id="Oval-Copy-44" cx="8.016" cy="8.016" r="8.016" transform="translate(2723.607 1442.211)" fill="#f8fafe"/>
    <circle id="Oval-Copy-43" cx="8.016" cy="8.016" r="8.016" transform="translate(2787.738 1441.81)" fill="#f8fafe"/>
    <circle id="Oval-Copy-56" cx="8.016" cy="8.016" r="8.016" transform="translate(2401.75 1482.694)" fill="#f8fafe"/>
    <circle id="Oval-Copy-55" cx="8.016" cy="8.016" r="8.016" transform="translate(2466.282 1482.694)" fill="#f8fafe"/>
    <circle id="Oval-Copy-54" cx="8.016" cy="8.016" r="8.016" transform="translate(2530.413 1482.293)" fill="#f8fafe"/>
    <circle id="Oval-Copy-53" cx="8.016" cy="8.016" r="8.016" transform="translate(2594.945 1483.094)" fill="#f8fafe"/>
    <circle id="Oval-Copy-52" cx="8.016" cy="8.016" r="8.016" transform="translate(2659.075 1483.094)" fill="#f8fafe"/>
    <circle id="Oval-Copy-51" cx="8.016" cy="8.016" r="8.016" transform="translate(2723.607 1482.694)" fill="#f8fafe"/>
    <circle id="Oval-Copy-50" cx="8.016" cy="8.016" r="8.016" transform="translate(2787.738 1482.293)" fill="#f8fafe"/>
  </g>
</svg>
