<svg id="Group_45" data-name="Group 45" xmlns="http://www.w3.org/2000/svg" width="33.733" height="33.733" viewBox="0 0 33.733 33.733">
  <g id="Group_38" data-name="Group 38">
    <path id="Path_38" data-name="Path 38" d="M66.65,236.68a16.866,16.866,0,1,1,16.867-16.866A16.885,16.885,0,0,1,66.65,236.68Zm0-31.921a15.055,15.055,0,1,0,15.055,15.055A15.072,15.072,0,0,0,66.65,204.759Z" transform="translate(-49.784 -202.947)"/>
  </g>
  <g id="Group_44" data-name="Group 44" transform="translate(6.975 8.77)">
    <g id="Group_39" data-name="Group 39">
      <path id="Path_39" data-name="Path 39" d="M80.655,219.079a8.066,8.066,0,0,1-1.986.567c.32-.054.792-.633.98-.867a3.66,3.66,0,0,0,.661-1.2c.017-.035.03-.078,0-.1a.111.111,0,0,0-.105.009,10.141,10.141,0,0,1-2.359.9.157.157,0,0,1-.163-.043,1.912,1.912,0,0,0-.206-.211,4.175,4.175,0,0,0-1.143-.7,3.979,3.979,0,0,0-1.753-.282,4.189,4.189,0,0,0-1.662.47,4.293,4.293,0,0,0-1.342,1.1,4.131,4.131,0,0,0-.8,1.6,4.354,4.354,0,0,0-.043,1.694c.013.095,0,.108-.081.095a12.6,12.6,0,0,1-8.106-4.126c-.095-.108-.146-.108-.224.009a4.11,4.11,0,0,0,.7,4.856c.159.15.322.3.5.438a4.117,4.117,0,0,1-1.564-.438c-.095-.06-.142-.025-.15.082a2.449,2.449,0,0,0,.025.465,4.156,4.156,0,0,0,2.562,3.313,2.407,2.407,0,0,0,.52.159,4.629,4.629,0,0,1-1.534.048c-.112-.022-.154.035-.112.142a4.315,4.315,0,0,0,3.223,2.7c.146.025.292.025.439.06-.009.013-.017.013-.026.026A5.108,5.108,0,0,1,64.7,231a7.886,7.886,0,0,1-3.343.428c-.18-.027-.218-.025-.266,0s-.006.074.052.12c.227.151.46.284.7.413a11.046,11.046,0,0,0,2.235.894,11.9,11.9,0,0,0,11.555-2.7,12.126,12.126,0,0,0,3.2-8.846c0-.127.15-.2.24-.264a7.786,7.786,0,0,0,1.565-1.636.475.475,0,0,0,.1-.313v-.017C80.729,219.027,80.736,219.043,80.655,219.079Z" transform="translate(-61.07 -217.139)"/>
    </g>
    <g id="Group_40" data-name="Group 40" transform="translate(5.838 16.123)">
      <path id="Path_40" data-name="Path 40" d="M70.518,243.228Z" transform="translate(-70.518 -243.228)" fill-rule="evenodd"/>
    </g>
    <g id="Group_41" data-name="Group 41" transform="translate(5.689 16.123)">
      <path id="Path_41" data-name="Path 41" d="M70.425,243.228c-.026,0-.324,0,0,0Z" transform="translate(-70.275 -243.228)" fill-rule="evenodd"/>
    </g>
    <g id="Group_42" data-name="Group 42" transform="translate(6.501 16.126)">
      <path id="Path_42" data-name="Path 42" d="M71.589,243.247c0-.033.348,0,0,0C71.589,243.23,71.632,243.247,71.589,243.247Z" transform="translate(-71.589 -243.232)" fill-rule="evenodd"/>
    </g>
    <g id="Group_43" data-name="Group 43" transform="translate(13.373 0.024)">
      <path id="Path_43" data-name="Path 43" d="M82.79,217.177a.069.069,0,0,1-.081,0Z" transform="translate(-82.709 -217.177)" fill-rule="evenodd"/>
    </g>
  </g>
</svg>
