<svg id="Group_54" data-name="Group 54" xmlns="http://www.w3.org/2000/svg" width="33.676" height="33.676" viewBox="0 0 33.676 33.676">
  <g id="Group_52" data-name="Group 52">
    <g id="Group_49" data-name="Group 49">
      <path id="Path_46" data-name="Path 46" d="M148.2,301.77a16.838,16.838,0,1,1,16.838-16.838A16.857,16.857,0,0,1,148.2,301.77Zm0-31.864a15.026,15.026,0,1,0,15.026,15.026A15.043,15.043,0,0,0,148.2,269.906Z" transform="translate(-131.366 -268.094)"/>
    </g>
    <g id="Group_51" data-name="Group 51" transform="translate(8.82 12.965)">
      <g id="Group_50" data-name="Group 50">
        <path id="Path_47" data-name="Path 47" d="M163.175,294.229v6.287a.281.281,0,0,1-.281.281h-3.246a.281.281,0,0,1-.281-.281v-5.847c0-1.539-.549-2.589-1.929-2.589a2.083,2.083,0,0,0-1.953,1.392,2.6,2.6,0,0,0-.126.928v6.116a.282.282,0,0,1-.282.281h-3.244a.28.28,0,0,1-.281-.281c.007-1.557.04-9.112.007-10.888a.28.28,0,0,1,.281-.285h3.238a.282.282,0,0,1,.281.282v1.342c-.008.013-.019.025-.025.038h.025v-.038a3.781,3.781,0,0,1,3.432-1.892c2.505,0,4.383,1.637,4.383,5.155ZM145.919,300.8h3.245a.281.281,0,0,0,.281-.281V289.625a.282.282,0,0,0-.281-.282h-3.245a.282.282,0,0,0-.281.282v10.891A.281.281,0,0,0,145.919,300.8Z" transform="translate(-145.638 -289.074)"/>
      </g>
    </g>
  </g>
  <g id="Group_53" data-name="Group 53" transform="translate(8.571 7.701)">
    <circle id="Ellipse_9" data-name="Ellipse 9" cx="2.038" cy="2.038" r="2.038"/>
  </g>
</svg>
