<svg id="Group_48" data-name="Group 48" xmlns="http://www.w3.org/2000/svg" width="33.734" height="33.733" viewBox="0 0 33.734 33.733">
  <g id="Group_46" data-name="Group 46">
    <path id="Path_44" data-name="Path 44" d="M148.187,236.68a16.866,16.866,0,1,1,16.867-16.866A16.886,16.886,0,0,1,148.187,236.68Zm0-31.921a15.055,15.055,0,1,0,15.055,15.055A15.072,15.072,0,0,0,148.187,204.759Z" transform="translate(-131.32 -202.947)"/>
  </g>
  <g id="Group_47" data-name="Group 47" transform="translate(12.152 6.757)">
    <path id="Path_45" data-name="Path 45" d="M153.054,224.07v9.775a.255.255,0,0,0,.255.255h3.63a.255.255,0,0,0,.255-.255v-9.935h2.632a.254.254,0,0,0,.253-.233l.253-2.994a.255.255,0,0,0-.254-.276h-2.885v-2.123a.9.9,0,0,1,.9-.9h2.029a.255.255,0,0,0,.255-.255v-2.993a.255.255,0,0,0-.255-.255H156.7a3.642,3.642,0,0,0-3.642,3.642v2.885h-1.815a.255.255,0,0,0-.255.255v2.994a.254.254,0,0,0,.255.255h1.815Z" transform="translate(-150.984 -213.881)" fill-rule="evenodd"/>
  </g>
</svg>
